<svg width="201" height="48" viewBox="0 0 201 48" fill="none" xmlns="http://www.w3.org/2000/svg">
    <g filter="url(#a)" shape-rendering="crispEdges">
        <path d="M4 15C4 6.716 10.716 0 19 0h163c8.284 0 15 6.716 15 15v10c0 8.284-6.716 15-15 15H19c-8.284 0-15-6.716-15-15V15z" fill="#81D6C6" fill-opacity=".23"/>
        <path d="M19 .5h163c8.008 0 14.5 6.492 14.5 14.5v10c0 8.008-6.492 14.5-14.5 14.5H19c-8.008 0-14.5-6.492-14.5-14.5V15C4.5 6.992 10.992.5 19 .5z" stroke="#000"/>
    </g>
    <defs>
        <filter id="a" x="0" y="0" width="201" height="48" filterUnits="userSpaceOnUse" color-interpolation-filters="sRGB">
            <feFlood flood-opacity="0" result="BackgroundImageFix"/>
            <feColorMatrix in="SourceAlpha" values="0 0 0 0 0 0 0 0 0 0 0 0 0 0 0 0 0 0 127 0" result="hardAlpha"/>
            <feOffset dy="4"/>
            <feGaussianBlur stdDeviation="2"/>
            <feComposite in2="hardAlpha" operator="out"/>
            <feColorMatrix values="0 0 0 0 0 0 0 0 0 0 0 0 0 0 0 0 0 0 0.25 0"/>
            <feBlend in2="BackgroundImageFix" result="effect1_dropShadow_3_16"/>
            <feBlend in="SourceGraphic" in2="effect1_dropShadow_3_16" result="shape"/>
        </filter>
    </defs>
</svg>
